<svg xmlns="http://www.w3.org/2000/svg" viewBox="0 0 64 64" role="img" aria-label="Shrestha Anvaya Charitable Trust">
  <rect width="64" height="64" rx="18" fill="#f7f1e8" />
  <path
    d="M28 8c8 10 12 18 12 27 0 11-7 20-18 20S4 46 4 35C4 23 12 13 28 8Z"
    fill="#183c3b"
    opacity="0.18"
  />
  <path
    d="M24 13c6 7 10 14 10 22 0 8-5 14-12 14S10 43 10 35c0-10 6-17 14-22Z"
    fill="#c7904d"
  />
  <path
    d="M19 21c4 4 7 9 7 15 0 6-4 10-9 10S8 42 8 36c0-7 4-12 11-15Z"
    fill="#183c3b"
  />
  <path
    d="M37 16c9 4 15 11 15 19 0 8-6 14-14 14-7 0-12-4-14-10 8-1 12-8 13-23Z"
    fill="#c7904d"
  />
</svg>
