<svg xmlns="http://www.w3.org/2000/svg" viewBox="0 0 240 360" fill="none">
  <g stroke="#d8c1a2" stroke-linecap="round" stroke-linejoin="round" stroke-width="2.2" opacity="0.8">
    <path d="M118 15c3 44 0 89-6 133-9 60-26 121-52 182" />
    <path d="M121 25c13 16 28 30 45 42 17 12 36 23 56 33" />
    <path d="M116 76c-15 9-31 15-49 18-18 4-37 5-57 2" />
    <path d="M110 135c13 10 24 22 33 37 9 14 17 30 22 47" />
    <path d="M98 186c-14 10-26 22-37 37-11 14-21 30-31 49" />
    <path d="M144 94c13-8 24-18 34-31 10-12 19-26 27-42" />
    <path d="M146 167c16 1 31-1 46-7 15-5 29-14 42-25" />
    <path d="M90 233c11 11 18 24 22 38 4 15 6 31 6 48" />
  </g>
</svg>

